<svg width="1390" height="79" viewBox="0 0 1390 79" fill="none" xmlns="http://www.w3.org/2000/svg">
<path d="M1345.46 54.3112V53.8112H1344.96H45.0391H44.5391V54.3112V76.2665C44.1518 75.3158 43.6458 74.137 43.0152 72.7904C41.3165 69.1629 38.7108 64.3111 35.0829 59.418C28.5963 50.6693 18.8022 41.7393 5.04608 39.5089C18.8022 37.27 28.5964 28.3356 35.0829 19.5846C38.7108 14.6902 41.3165 9.83774 43.0152 6.20989C43.6458 4.86317 44.1518 3.68431 44.5391 2.73355V24.6888V25.1888H45.0391H1344.96H1345.46V24.6888V2.73498C1345.85 3.68617 1346.35 4.86552 1346.98 6.21274C1348.68 9.84221 1351.29 14.6966 1354.92 19.5923C1361.4 28.3437 1371.19 37.2765 1384.94 39.5103C1371.19 41.7432 1361.4 50.6712 1354.92 59.418C1351.29 64.3111 1348.68 69.1629 1346.98 72.7904C1346.35 74.1371 1345.85 75.3159 1345.46 76.2666V54.3112Z" fill="#D5BDAF" stroke="#605565"/>
</svg>
